<?xml version="1.0" encoding="UTF-8"?>
<svg xmlns="http://www.w3.org/2000/svg" xmlns:xlink="http://www.w3.org/1999/xlink" width="114px" height="46px" viewBox="0 0 114 46" version="1.1">
<g id="surface1">
<path style=" stroke:none;fill-rule:nonzero;fill:rgb(0%,0%,0%);fill-opacity:1;" d="M 33.328125 3.332031 C 24.855469 4.167969 17.402344 8.390625 17.402344 12.359375 C 17.402344 14.109375 18.617188 15.5 21.179688 16.609375 C 21.898438 16.945312 22.359375 17.195312 22.164062 17.222656 C 20.585938 17.304688 16.910156 18.222656 14.972656 19 C 10.078125 21 7.386719 24 7.386719 27.5 C 7.386719 30.582031 9.421875 32.75 13.691406 34.222656 C 15.433594 34.804688 16.089844 34.859375 21.015625 34.859375 C 25.90625 34.859375 26.761719 34.777344 29.714844 34.082031 C 37.5625 32.25 43.339844 28.722656 43.339844 25.777344 C 43.339844 24.359375 42.191406 23.304688 40.648438 23.359375 C 39.859375 23.390625 39.761719 23.445312 40.320312 23.527344 C 40.714844 23.582031 41.273438 23.945312 41.566406 24.304688 C 42.027344 24.917969 42.027344 25.054688 41.566406 25.917969 C 40.1875 28.332031 34.835938 31.472656 29.355469 33.082031 C 26.234375 33.972656 25.90625 34.027344 21.179688 34.027344 C 16.613281 34.027344 16.15625 33.972656 14.773438 33.359375 C 12.015625 32.140625 10.769531 30.722656 10.34375 28.277344 C 9.949219 26.054688 10.835938 24.140625 13.230469 22.082031 C 16.15625 19.582031 17.761719 19.109375 24.132812 18.917969 C 26.859375 18.832031 29.253906 18.640625 29.484375 18.527344 C 30.371094 18.027344 29.910156 17.25 28.566406 16.945312 C 27.84375 16.804688 26.628906 16.527344 25.875 16.359375 C 23.96875 15.945312 22.328125 15.195312 21.375 14.332031 C 20.71875 13.75 20.554688 13.304688 20.585938 12.277344 C 20.621094 10.640625 21.277344 9.472656 23.015625 8.054688 C 26.039062 5.582031 30.667969 4.082031 35.460938 4.054688 C 39.171875 4.027344 40.78125 4.527344 41.601562 6 C 42.09375 6.832031 42.09375 7.027344 41.566406 8.140625 C 40.878906 9.667969 39.664062 10.667969 37.199219 11.722656 L 35.296875 12.527344 L 36.675781 12.359375 C 40.617188 11.945312 44.324219 9.332031 44.324219 7 C 44.324219 4.417969 39.335938 2.75 33.328125 3.332031 Z M 33.328125 3.332031 "/>
<path style=" stroke:none;fill-rule:nonzero;fill:rgb(0%,0%,0%);fill-opacity:1;" d="M 57.296875 9.972656 C 56.738281 10.25 55.882812 10.890625 55.390625 11.390625 C 53.847656 12.917969 50.070312 19.75 48.429688 23.945312 C 46.035156 30.054688 46.230469 32.472656 49.121094 32.945312 C 51.648438 33.332031 54.4375 31.445312 56.476562 27.972656 C 57.953125 25.417969 57.492188 25.304688 55.949219 27.832031 C 54.242188 30.582031 52.273438 32.222656 50.730469 32.222656 C 49.679688 32.222656 49.480469 32.109375 49.085938 31.277344 C 48.691406 30.527344 48.691406 30 48.957031 28.722656 C 49.480469 26.359375 49.777344 25.859375 51.878906 24.027344 C 56.703125 19.75 61.335938 11.472656 59.757812 9.859375 C 59.199219 9.304688 58.476562 9.332031 57.296875 9.972656 Z M 59.132812 12.554688 C 58.246094 15.054688 54.046875 21.140625 51.417969 23.75 C 50.203125 24.945312 50.367188 24.304688 52.074219 20.917969 C 55.359375 14.390625 58.3125 10.332031 59.199219 11.082031 C 59.429688 11.277344 59.398438 11.75 59.132812 12.554688 Z M 59.132812 12.554688 "/>
<path style=" stroke:none;fill-rule:nonzero;fill:rgb(0%,0%,0%);fill-opacity:1;" d="M 81.496094 16.582031 C 81.328125 16.859375 81.035156 17.695312 80.835938 18.472656 C 80.640625 19.222656 79.949219 21.222656 79.292969 22.890625 C 78.636719 24.527344 78.179688 25.945312 78.242188 26.027344 C 78.34375 26.082031 78.800781 25.25 79.328125 24.140625 C 79.820312 23.054688 80.445312 22.082031 80.707031 22 C 81.429688 21.777344 83.464844 22.304688 83.859375 22.832031 C 84.121094 23.222656 83.859375 23.890625 82.480469 26.167969 C 80.179688 30.027344 80.148438 32.054688 82.347656 32.722656 C 83.628906 33.082031 84.941406 32.582031 86.417969 31.109375 C 87.765625 29.804688 90.128906 26.167969 89.835938 25.917969 C 89.570312 25.695312 89.605469 25.667969 88.355469 27.777344 C 86.8125 30.304688 85.203125 31.945312 84.1875 31.945312 C 83.726562 31.945312 83.300781 31.75 83.203125 31.527344 C 82.875 30.804688 83.695312 28.640625 85.566406 25.304688 C 86.550781 23.554688 87.339844 21.917969 87.339844 21.640625 C 87.339844 21.167969 87.042969 21.109375 84.351562 21.109375 L 81.363281 21.109375 L 82.546875 20 C 83.429688 19.167969 83.726562 18.640625 83.726562 17.945312 C 83.726562 16.417969 82.152344 15.5 81.496094 16.582031 Z M 81.496094 16.582031 "/>
<path style=" stroke:none;fill-rule:nonzero;fill:rgb(0%,0%,0%);fill-opacity:1;" d="M 97.253906 20.445312 C 93.972656 21.832031 90.71875 25.945312 90.390625 29.140625 C 90.195312 30.972656 90.621094 32.027344 91.769531 32.667969 C 92.460938 33.054688 92.757812 33.054688 93.578125 32.777344 C 94.726562 32.390625 96.5 30.945312 97.945312 29.304688 L 98.894531 28.195312 L 98.667969 29.582031 C 98.140625 33 100.964844 34.195312 103.753906 31.695312 C 105.070312 30.5 107.792969 26.5 107.597656 26.027344 C 107.53125 25.832031 107.007812 26.445312 106.449219 27.359375 C 104.511719 30.609375 102.507812 32.445312 101.292969 32.054688 C 99.945312 31.609375 101.589844 26.582031 103.953125 23.972656 C 104.378906 23.5 104.742188 23.027344 104.742188 22.917969 C 104.742188 22.832031 104.117188 22.777344 103.363281 22.832031 L 101.949219 22.917969 L 99.617188 26.222656 C 98.339844 28.054688 96.664062 30.082031 95.910156 30.75 C 94.757812 31.777344 94.363281 31.972656 93.480469 31.890625 C 92.492188 31.804688 92.429688 31.75 92.328125 30.582031 C 92.230469 29.609375 92.460938 28.917969 93.414062 27.304688 C 96.367188 22.222656 101.589844 19.027344 103.460938 21.140625 C 103.753906 21.5 104.148438 21.722656 104.28125 21.609375 C 104.707031 21.222656 104.085938 20.527344 102.933594 20.140625 C 101.195312 19.5 99.191406 19.609375 97.253906 20.445312 Z M 97.253906 20.445312 "/>
<path style=" stroke:none;fill-rule:nonzero;fill:rgb(0%,0%,0%);fill-opacity:1;" d="M 62.777344 20.332031 C 61.890625 20.695312 59.003906 25.554688 59.429688 25.945312 C 59.59375 26.082031 59.234375 26.945312 58.675781 27.859375 C 56.835938 30.804688 57.523438 32.777344 60.382812 32.777344 C 62.484375 32.777344 64.617188 31.167969 66.851562 27.945312 C 67.34375 27.195312 67.800781 26.695312 67.867188 26.859375 C 68.03125 27.222656 66.128906 31.722656 65.144531 33.390625 L 64.386719 34.667969 L 60.675781 35.417969 C 52.863281 37 49.546875 38.722656 49.019531 41.5 C 48.59375 43.804688 49.808594 44.722656 53.257812 44.722656 C 55.917969 44.722656 58.148438 43.859375 60.613281 41.890625 C 62.285156 40.554688 66.324219 35.859375 66.324219 35.277344 C 66.324219 35.140625 67.277344 34.640625 68.425781 34.167969 C 71.414062 32.972656 73.21875 31.359375 75.027344 28.359375 C 75.847656 26.972656 76.371094 25.832031 76.207031 25.832031 C 76.042969 25.832031 75.78125 26.109375 75.683594 26.445312 C 75.289062 27.609375 72.957031 30.667969 71.742188 31.722656 C 70.394531 32.859375 67.867188 34.054688 67.703125 33.609375 C 67.574219 33.304688 70.953125 25.054688 72.105469 22.832031 C 72.5625 21.972656 73.253906 20.972656 73.613281 20.640625 L 74.304688 20 L 73.023438 20 C 72.332031 20 71.546875 20.109375 71.28125 20.25 C 71.054688 20.390625 69.871094 22 68.65625 23.832031 C 64.484375 30.277344 61.695312 32.972656 60.25 31.945312 C 59.824219 31.640625 59.726562 31.277344 59.890625 30.359375 C 60.121094 28.972656 63.960938 22.109375 65.207031 20.832031 L 66.0625 20 L 64.78125 20.027344 C 64.09375 20.027344 63.207031 20.167969 62.777344 20.332031 Z M 63.371094 36.082031 C 63.371094 36.609375 60.285156 39.777344 58.214844 41.359375 C 55.6875 43.332031 53.816406 44.167969 51.945312 44.167969 C 49.285156 44.167969 48.957031 42.082031 51.320312 39.832031 C 52.632812 38.554688 54.703125 37.695312 58.839844 36.695312 C 62.449219 35.804688 63.371094 35.695312 63.371094 36.082031 Z M 63.371094 36.082031 "/>
</g>
</svg>
