<?xml version="1.0" standalone="no"?>
<!DOCTYPE svg PUBLIC "-//W3C//DTD SVG 20010904//EN"
 "http://www.w3.org/TR/2001/REC-SVG-20010904/DTD/svg10.dtd">
<svg version="1.0" xmlns="http://www.w3.org/2000/svg"
 width="1200.000000pt" height="1200.000000pt" viewBox="0 0 1200.000000 1200.000000"
 preserveAspectRatio="xMidYMid meet">

<g transform="translate(0.000000,1200.000000) scale(0.100000,-0.100000)"
fill="#000000" stroke="none">
<path d="M5185 5815 c-136 -30 -249 -87 -326 -165 -63 -62 -86 -115 -75 -173
8 -41 65 -103 113 -123 44 -19 36 -30 -28 -37 -145 -17 -307 -124 -366 -242
-38 -73 -36 -164 2 -225 68 -108 189 -160 376 -160 194 0 388 53 534 145 93
59 155 135 155 188 0 40 -44 87 -79 86 l-26 -1 27 -9 c35 -13 43 -39 25 -81
-32 -77 -116 -145 -272 -219 -118 -57 -219 -80 -350 -80 -122 -1 -184 13 -246
56 -87 61 -113 208 -54 314 34 62 89 112 160 145 64 30 109 38 257 41 97 2
123 5 136 19 16 16 16 18 0 30 -9 6 -49 20 -90 29 -140 34 -195 87 -183 177
11 73 62 139 150 192 138 83 364 112 453 58 93 -57 46 -186 -93 -252 -59 -28
-59 -29 -20 -24 110 15 235 117 235 191 0 47 -53 99 -122 120 -63 18 -209 19
-293 0z"/>
<path d="M5990 5586 c-47 -32 -61 -51 -110 -143 -109 -206 -203 -467 -204
-570 -1 -52 2 -64 22 -82 36 -31 75 -35 124 -13 54 24 99 74 143 162 44 87 38
93 -7 8 -18 -35 -54 -84 -79 -110 -38 -40 -51 -48 -82 -48 -51 0 -72 33 -63
100 11 84 32 126 109 215 111 129 237 365 237 444 0 30 -22 61 -43 61 -7 0
-28 -11 -47 -24z m70 -51 c0 -62 -117 -284 -212 -405 -48 -60 -75 -69 -50 -17
5 12 22 51 37 87 104 248 225 429 225 335z"/>
<path d="M6736 5354 c-9 -8 -16 -27 -16 -42 0 -22 -46 -168 -86 -277 -5 -14
-4 -17 3 -10 6 6 21 38 33 73 22 59 24 62 56 62 54 0 84 -16 84 -45 0 -13 -22
-68 -50 -120 -58 -111 -66 -169 -28 -205 37 -34 82 -27 131 23 44 45 101 135
111 177 4 14 -8 -2 -25 -35 -36 -69 -91 -140 -121 -156 -16 -8 -24 -8 -35 4
-25 25 -8 93 57 228 33 68 60 132 60 143 0 18 -5 19 -85 13 -90 -6 -109 1 -75
30 49 41 64 107 32 136 -23 21 -27 21 -46 1z"/>
<path d="M7225 5216 c-61 -30 -89 -56 -143 -128 -43 -59 -82 -157 -82 -208 0
-72 45 -125 94 -112 22 6 110 90 144 137 l21 30 1 -63 c0 -74 10 -97 44 -106
35 -9 66 6 109 50 34 35 124 191 115 199 -2 2 -23 -32 -48 -75 -55 -101 -101
-153 -132 -148 -52 7 -27 149 47 270 19 31 35 59 35 62 0 13 -59 5 -74 -9 -8
-8 -29 -41 -47 -72 -54 -96 -127 -200 -155 -222 -15 -12 -41 -21 -60 -21 l-34
0 0 54 c0 43 8 69 35 122 99 190 252 294 310 211 8 -11 18 -18 22 -14 4 4 -5
19 -19 34 -39 39 -116 43 -183 9z"/>
<path d="M6171 5217 c-30 -15 -102 -145 -106 -191 -2 -18 -15 -56 -28 -83 -25
-49 -32 -76 -29 -120 2 -27 47 -53 91 -53 41 0 128 82 178 166 21 36 39 60 41
54 5 -15 -35 -145 -68 -218 -33 -71 -27 -68 -199 -111 -134 -34 -201 -64 -245
-107 -73 -72 -85 -136 -37 -185 26 -26 36 -29 93 -29 129 0 239 80 358 263 59
90 69 100 122 124 73 33 145 108 192 201 20 39 36 77 36 84 0 7 -19 -25 -41
-71 -23 -48 -59 -102 -84 -127 -45 -44 -122 -90 -133 -79 -8 8 96 320 132 397
14 29 33 63 42 76 16 21 16 22 -9 22 -52 0 -71 -19 -127 -127 -69 -132 -123
-215 -175 -270 -64 -67 -113 -53 -102 29 6 46 131 310 159 335 10 9 18 20 18
25 0 12 -52 9 -79 -5z m12 -553 c22 -23 -179 -241 -260 -283 -44 -22 -117 -28
-143 -11 -23 15 -18 82 9 122 46 66 114 100 326 161 62 19 60 18 68 11z"/>
</g>
</svg>
